<?xml version="1.0"?>

<svg
	xmlns="http://www.w3.org/2000/svg"
	xmlns:xlink="http://www.w3.org/1999/xlink"

	class="figure"
	width="560" height="710"
	transform="translate(.5 .5)">

	<defs>
		<marker id="tdf_scheme:arrow"
				markerWidth="5" markerHeight="5"
				markerUnits="userSpaceOnUse"
				refX="5" refY="2.5"
				orient="auto">
			<polyline points="0,0 5,2.5 0,5" class="arrow"/>
		</marker>
	</defs>

	<g transform="translate(260 275)" class="region">
		<rect x="-250" y="-270" height="700" width="530" rx="5" ry="5"/>
		<line x1="-250" x2="280" class="region"/>
		<line y1="-270" y2="430" class="region"/>

		<text x="-10" y="-260" text-anchor="end">Target-independent</text>
		<text x="-10" y="-250" text-anchor="end">program production</text>

		<text x="10"  y="-260" text-anchor="start">Target-independent</text>
		<text x="10"  y="-250" text-anchor="start">API description</text>

		<text x="-10" y="10"   text-anchor="end">Target-dependent</text>
		<text x="-10" y="20"   text-anchor="end">program installation</text>

		<text x="10"  y="10"   text-anchor="start">Target-dependent</text>
		<text x="10"  y="20"   text-anchor="start">API implementation</text>
	</g>

	<g transform="translate(100 55)">
		<g transform="translate(0 15)">
			<rect x="-65" y="-20" width="130" height="40"/>
			<g transform="translate(-55 -5)" text-anchor="start" style="font-weight: bold;">
				<text y="-5">Portable program</text>
				<text y="5">source</text>
			</g>
			<text x="60" y="10" text-anchor="end">.c/.cc</text>	<!-- TODO: monospace -->

			<line y1="20" y2="140" marker-end="url(#tdf_scheme:arrow)"/>

			<g transform="translate(-10 115)" text-anchor="end">
				<text y="-5">Producer</text>
				<text y="5" class="code">tdfc/tcpplus</text>	<!-- TODO: not monospace / -->
			</g>
		</g>

		<g transform="translate(0 175)">
			<rect x="-65" y="-20" width="130" height="40"/>
			<g transform="translate(-55 -10)" text-anchor="start" style="font-weight: bold;">
				<text>Target-independent</text>
				<text y="10">TDF</text>
			</g>
			<text x="60" y="10" text-anchor="end">.j</text>

			<line y1="20" y2="135" marker-end="url(#tdf_scheme:arrow)"/>

			<g transform="translate(-10 115)" text-anchor="end">
				<text y="-5">TDF linking</text>
				<text y="5" class="code">tld</text>
			</g>
		</g>

		<g transform="translate(0 330)">
			<rect x="-65" y="-20" width="130" height="40"/>
			<g transform="translate(-55 -10)" text-anchor="start" style="font-weight: bold;">
				<text>Target-dependent</text>
				<text y="10">TDF</text>
			</g>
			<text x="60" y="10" text-anchor="end">.t</text>

			<line y1="20" y2="70" marker-end="url(#tdf_scheme:arrow)"/>

			<g transform="translate(-10 45)" text-anchor="end">
				<text y="-5">Install</text>
				<text y="5" class="code">trans</text>
			</g>
		</g>

		<g transform="translate(0 420)">
			<rect x="-65" y="-20" width="130" height="40"/>
			<g transform="translate(-55 -10)" text-anchor="start" style="font-weight: bold;">
				<text>Assembly source</text>
			</g>
			<text x="60" y="10" text-anchor="end">.s</text>

			<line y1="20" y2="70" marker-end="url(#tdf_scheme:arrow)"/>

			<g transform="translate(-10 45)" text-anchor="end">
				<text y="-5">Assemble</text>
				<text y="5" class="code">as</text>
			</g>
		</g>

		<g transform="translate(0 510)">
			<rect x="-65" y="-20" width="130" height="40"/>
			<g transform="translate(-55 -10)" text-anchor="start" style="font-weight: bold;">
				<text>Binary object</text>
			</g>
			<text x="60" y="10" text-anchor="end">.o</text>

			<line y1="20" y2="70" marker-end="url(#tdf_scheme:arrow)"/>

			<g transform="translate(-10 45)" text-anchor="end">
				<text y="-5">Link</text>
				<text y="5" class="code">ld</text>
			</g>
		</g>

		<g transform="translate(0 600)">
			<rect x="-65" y="-20" width="130" height="40"/>
			<g transform="translate(-55 -10)" text-anchor="start" style="font-weight: bold;">
				<text>Executable</text>
			</g>
		</g>
	</g>

	<g transform="translate(380 55)">
		<g transform="translate(0 15)">
			<polyline points="10,-30 -20,-30 -20,30 20,30 20,-20 10,-20 10,-30 20,-20"/>
			<g text-anchor="middle" style="font-weight: bold;">
				<text y="-5">API</text>
				<text y="5">Spec</text>
			</g>

			<line x1="-20" x2="-215" class="dashed"/>
			<line y1="30"  y2="90"   class="dashed"/>
			<path d="M 20,0 l 100,0 q 10,0 10,10 l 0,515 q 0,10 -10,10 l -55,0" class="dashed"/>
			<path d="M 130,435 q 0,10 -10,10 l -55,0" class="dashed"/>

			<!-- workaround for markers inheriting stroke-dasharray -->
			<line transform="translate(-210 0)" x2="-5" marker-end="url(#tdf_scheme:arrow)"/>
			<line transform="translate( 0  90)" y1="-5" marker-end="url(#tdf_scheme:arrow)"/>
			<line transform="translate(70 445)" x2="-5" marker-end="url(#tdf_scheme:arrow)"/>
			<line transform="translate(70 535)" x2="-5" marker-end="url(#tdf_scheme:arrow)"/>

			<text y="55" x="-5" text-anchor="end">Description</text>
			<text y="65" x="-5" text-anchor="end" class="code">tspec</text>

			<text y="-10" x="-160" text-anchor="middle">Conformance</text>
			<text y="490" x="125" text-anchor="end">Implementation</text>
		</g>

		<g transform="translate(0 125)">
			<rect x="-65" y="-20" width="130" height="40"/>
			<g transform="translate(-55 -10)" text-anchor="start" style="font-weight: bold;">
				<text>Target-independent</text>
				<text y="10">API headers</text>
			</g>
			<text x="60" y="10" text-anchor="end">.h</text>

			<line y1="20" y2="135" marker-end="url(#tdf_scheme:arrow)"/>
			<path d="M -65,0 l -205,0 q -10,0 -10,10"/>

			<text y="60" x="-5" text-anchor="end">Library building</text>
		</g>

		<g transform="translate(0 280)">
			<rect x="-65" y="-20" width="130" height="40"/>
			<g transform="translate(-55 -10)" text-anchor="start" style="font-weight: bold;">
				<text>API TDF libraries</text>
			</g>
			<text x="60" y="10" text-anchor="end">.tl</text>

			<path d="M -65,0 l -205,0 q -10,0 -10,10"/>
		</g>

		<g transform="translate(0 460)">
			<rect x="-65" y="-20" width="130" height="40"/>
			<g transform="translate(-55 -10)" text-anchor="start" style="font-weight: bold;">
				<text>System headers</text>
			</g>
			<text x="60" y="10" text-anchor="end">.h</text>

			<line y1="-20" y2="-160" marker-end="url(#tdf_scheme:arrow)"/>
		</g>

		<g transform="translate(0 550)">
			<rect x="-65" y="-20" width="130" height="40"/>
			<g transform="translate(-55 -10)" text-anchor="start" style="font-weight: bold;">
				<text>System libraries</text>
			</g>
			<text x="60" y="10" text-anchor="end">.o/.a/.so</text>

			<path d="M -65,0 l -205,0 q -10,0 -10,10"/>
		</g>
	</g>

</svg>

