<?xml version="1.0"?>

<!-- $Id$ -->

<svg
	xmlns="http://www.w3.org/2000/svg"
	xmlns:xlink="http://www.w3.org/1999/xlink"

	class="figure"
	width="580" height="840"
	transform="translate(.5 .5)">

	<defs>
		<marker id="compilation:arrow"
				markerWidth="5" markerHeight="5"
				markerUnits="userSpaceOnUse"
				refX="5" refY="2.5"
				orient="auto">
			<polyline points="0,0 5,2.5 0,5" class="arrow"/>
		</marker>
	</defs>

	<g transform="translate(200 20)">
		<circle r="15"/>
		<text text-anchor="middle">X</text>
	</g>

	<g transform="translate(200 105)">
		<rect x="-80" y="-30" width="160" height="55"/>
		<g transform="translate(-70 -10)" text-anchor="start" style="font-weight: bold;">
			<text y="-5">Target-independent TDF</text>
		</g>
		<text x="75" y="10" text-anchor="end">$PREFIX_TMP/*.j</text>

		<g transform="translate(-10 175)" text-anchor="end">
			<text y="-5">TDF linking</text>
			<text y="5" class="code">tld</text>
		</g>

		<line y1="-70" y2="-30" marker-end="url(#compilation:arrow)"/>

		<line y1="25" y2="195" marker-end="url(#compilation:arrow)"/>
	</g>

	<g transform="translate(95 100)">
		<circle r="15"/>
		<text text-anchor="middle">F</text>
	</g>

	<g transform="translate(95 185)">
		<rect x="-80" y="-30" width="160" height="75"/>
		<g transform="translate(-70 -10)" text-anchor="start" style="font-weight: bold;">
			<text y="-5">API TDF libraries</text>
		</g>
		<g transform="translate(75 0)" text-anchor="end">
			<text>$PREFIX_API/$api.tl</text>
		</g>

		<g transform="translate(-70 0)" text-anchor="left">
			<text y="15">Portable TDF interface to</text>
			<text y="25">OS's implementation. e.g.</text>
			<text y="35">ansi.api to libc symbols</text>
		</g>

		<line y1="-70" y2="-30" marker-end="url(#compilation:arrow)"/>

		<path d="M 0,45 l 0,15 q 0,10 10,10 l 85,0 q 10,0 10,10"/>
	</g>

	<g transform="translate(305 185)">
		<rect x="-80" y="-30" width="160" height="75"/>
		<g transform="translate(-70 -10)" text-anchor="start" style="font-weight: bold;">
			<text y="-5">LPI TDF libraries</text>
		</g>

		<g transform="translate(75 0)" text-anchor="end">
			<text>$PREFIX_LPI/$lpi.tl</text>
		</g>

		<g transform="translate(-70 5)" text-anchor="start">
			<text y="10">Platform-specific implement-</text>
			<text y="20">ation of language-specific</text>
			<text y="30">TDF constructs, e.g. ~fl_rep</text>
		</g>

		<path d="M 0,45 l 0,15 q 0,10 -10,10"/>
	</g>

	<g transform="translate(490 185)">
		<rect x="-80" y="-30" width="160" height="75"/>
		<g transform="translate(-70 -10)" text-anchor="start" style="font-weight: bold;">
			<text y="-5">CRT TDF libraries</text>
		</g>
		<g transform="translate(-70 -10)" text-anchor="start">
			<text y="10">(TODO: crtp_n.tpl -&gt; .j</text>
			<text y="20">provides __PROM_init_list)</text>
		</g>
		<text x="75" y="25" text-anchor="end">TODO/crtp_n.j</text>
		<!-- TODO: i think this is portable and producer-specific -->

		<path d="M 0,45 l 0,15 q 0,10 -10,10 l -270,0 q -10,0 -10,10"/>
	</g>

	<g transform="translate(200 330)">
		<rect x="-80" y="-30" width="160" height="55"/>
		<g transform="translate(-70 -10)" text-anchor="start" style="font-weight: bold;">
			<text y="-5">Target-dependent TDF</text>
		</g>
		<text x="75" y="10" text-anchor="end">$PREFIX_TMP/*.t</text>

		<g transform="translate(-10 50)" text-anchor="end">
			<text y="-5">Install</text>
			<text y="5" class="code">trans</text>
		</g>

		<g transform="translate(0 125)">
			<line y2="-10" y1="-25"/>
			<text text-anchor="middle">OR</text>
			<line y1="5" y2="20"/>
		</g>

		<g marker-end="url(#compilation:arrow)">
			<path d="M 0 25 l 0,35 q 0,10 -10,10 l -85,0 q -10,0 -10,10 l 0,15"/>
			<path d="M 95 70 q 10,0 10,10 l 0,15"/>
			<path d="M 0 60 q 0,10 10,10 l 270,0 q 10,0 10,10 l 0,15"/>
		</g>
	</g>

	<g transform="translate(95 455)">
		<rect x="-80" y="-30" width="160" height="55"/>
		<g transform="translate(-70 -10)" text-anchor="start" style="font-weight: bold;">
			<text y="-5">Assembler source</text>
		</g>
		<text x="75" y="10" text-anchor="end">$PREFIX_TMP/*.s</text>

		<g transform="translate(10 50)" text-anchor="start">
			<text y="-5">Assemble</text>
			<text y="5" class="code">as</text>
		</g>

		<path d="M 0 25 l 0,35 q 0,10 10,10 l 85,0 q 10,0 10,10 l 0,15"
			marker-end="url(#compilation:arrow)"/>
	</g>

	<g transform="translate(305 455)">
		<rect x="-80" y="-30" width="160" height="55"/>
		<g transform="translate(-70 -10)" text-anchor="start" style="font-weight: bold;">
			<text y="-5">Binasm source</text>
		</g>

		<text y="-70" x="100" text-anchor="middle">MIPS &amp; Alpha only</text>

		<text x="75" y="10" text-anchor="end">$PREFIX_TMP/*.G</text>

		<g transform="translate(10 50)" text-anchor="start">
			<text y="-5">Assemble</text>
			<text y="5" class="code">as1</text>
		</g>

		<path d="M 0,25 l 0,35 q 0,10 -10,10"/>
	</g>

	<g transform="translate(490 455)">
		<rect x="-80" y="-30" width="160" height="55"/>
		<g transform="translate(-70 -10)" text-anchor="start" style="font-weight: bold;">
			<text y="-5">Binary symbol table</text>
		</g>
		<text x="75" y="10" text-anchor="end">$PREFIX_TMP/*.T</text>

		<path d="M 0,25 l 0,35 q 0,10 -10,10 l -270,0 q -10,0 -10,10"/>
	</g>

	<g transform="translate(200 580)">
		<rect x="-80" y="-30" width="160" height="55"/>
		<g transform="translate(-70 -10)" text-anchor="start" style="font-weight: bold;">
			<text y="-5">Binary object</text>
		</g>
		<text x="75" y="10" text-anchor="end">$PREFIX_TMP/*.o</text>

		<g transform="translate(-10 175)" text-anchor="end">
			<text y="-5">Link</text>
			<text y="5" class="code">ld</text>
		</g>

		<line y1="25" y2="195" marker-end="url(#compilation:arrow)"/>
	</g>

	<g transform="translate(95 660)">
		<rect x="-80" y="-30" width="160" height="75"/>
		<g transform="translate(-70 -10)" text-anchor="start" style="font-weight: bold;">
			<text y="-5">System libraries</text>
		</g>
		<text x="75" text-anchor="end">/lib/*.so, /lib/*.a</text>

		<g transform="translate(-70 0)" text-anchor="start">
			<text y="15">libc and friends, providing</text>
			<text y="25">implementation of symbols</text>
			<text y="35">referenced by $api.tl above</text>
		</g>

		<path d="M 0 45 l 0,15 q 0,10 10,10 l 85,0 q 10,0 10,10"/>
	</g>

	<g transform="translate(305 660)">
		<rect x="-80" y="-30" width="160" height="75"/>
		<g transform="translate(-70 -10)" text-anchor="start" style="font-weight: bold;">
			<text y="-5">System runtime support</text>
		</g>
		<text x="75" text-anchor="end">/lib/*.o</text>

		<g transform="translate(-70 30)" text-anchor="start">
			<text y="-5">crt.o and friends (e.g. ELF</text>
			<text y="5">entry for .main)</text>
		</g>

		<path d="M 0,45 l 0,15 q 0,10 -10,10"/>
	</g>

	<g transform="translate(490 660)">
		<rect x="-80" y="-30" width="160" height="75"/>
		<g transform="translate(-70 -10)" text-anchor="start" style="font-weight: bold;">
			<text y="-5">TDF runtime support</text>
		</g>
		<text x="75" text-anchor="end">$PREFIX_SYS/libtsl.a</text>

		<g transform="translate(-70 30)" text-anchor="start">
			<text y="-5">64-bit emulation (CPU-</text>
			<text y="5">specific implementation)</text>
		</g>

		<path d="M 0,45 l 0,15 q 0,10 -10,10 l -270,0 q -10,0 -10,10"/>
	</g>

	<g transform="translate(200 805)">
		<rect x="-80" y="-30" width="160" height="55"/>
		<g transform="translate(-70 -10)" text-anchor="start" style="font-weight: bold;">
			<text y="-5">Executable</text>
		</g>
		<text x="75" y="10" text-anchor="end">a.out</text>
	</g>

</svg>

