<?xml version="1.0"?>

<svg
	xmlns="http://www.w3.org/2000/svg"
	xmlns:xlink="http://www.w3.org/1999/xlink"

	class="figure"
	width="580" height="720"
	transform="translate(.5 .5)">

	<defs>
		<marker id="tcc_files:arrow"
				markerWidth="5" markerHeight="5"
				markerUnits="userSpaceOnUse"
				refX="5" refY="2.5"
				orient="auto">
			<polyline points="0,0 5,2.5 0,5" class="arrow"/>
		</marker>
	</defs>

	<g transform="translate(260 380)" class="region">
		<rect x="-235" y="-370" height="700" width="550" rx="5" ry="5"/>
		<line x1="-235" x2="315" class="region"/>

		<text x="-230" y="-360" text-anchor="start">Target-independent</text>
		<text x="-230" y="10"   text-anchor="start">Target-dependent</text>
	</g>

	<g transform="translate(300 220)">
		<g transform="translate(-75 -165)">
			<rect x="-65" y="-20" width="130" height="40"/>
			<g transform="translate(-55 -5)" text-anchor="start" style="font-weight: bold;">
				<text>C source</text>
			</g>
			<text x="60" y="10" text-anchor="end">.c</text>

			<line x1="-45" x2="-45" y1="20" y2="45" class="dashed"/>
			<g marker-end="url(#tcc_files:arrow)">
				<line x1="45"  x2="45"  y1="20" y2="145"/>
				<line x1="-45" x2="-45" y1="50" y2="55"/>
			</g>

			<g transform="translate(35 37)" text-anchor="end">
				<text class="code">tdfc</text>
			</g>

			<g transform="translate(-55 37)" text-anchor="end">
				<text class="code">tdfc -E</text>
			</g>
		</g>

		<g transform="translate(-120 -90)">
			<rect x="-60" y="-20" width="120" height="40"/>
			<g transform="translate(-50 -5)" text-anchor="start" style="font-weight: bold;">
				<text y="-5">Preprocessed C</text>
			</g>
			<text x="55" y="10" text-anchor="end">.i</text>

			<path d="M 0,20 l 0,15 q 0,10 10,10 l 50,0 q 10,0 10,10 l 0,15"
				marker-end="url(#tcc_files:arrow)"/>

			<g transform="translate(30 35)" text-anchor="middle">
				<text class="code">tdfc</text>
			</g>
		</g>

		<g transform="translate(75 -165)">
			<rect x="-65" y="-20" width="130" height="40"/>
			<g transform="translate(-55 -5)" text-anchor="start" style="font-weight: bold;">
				<text>C++ source</text>
			</g>
			<text x="60" y="10" text-anchor="end">.c/.cc/.cpp/.C</text>

			<line x1="45"  x2="45"  y1="20" y2="45" class="dashed"/>
			<g marker-end="url(#tcc_files:arrow)">
				<line x1="-45" x2="-45" y1="20" y2="145"/>
				<line x1="45"  x2="45"  y1="50" y2="55"/>
			</g>

			<g transform="translate(-35 37)" text-anchor="start">
				<text class="code">tcpplus</text>
			</g>

			<g transform="translate(55 37)" text-anchor="start">
				<text class="code">tcpplus -E</text>
			</g>
		</g>

		<g transform="translate(120 -90)">
			<rect x="-60" y="-20" width="120" height="40"/>
			<g transform="translate(-50 -5)" text-anchor="start" style="font-weight: bold;">
				<text y="-5">Preprocessed C++</text>
			</g>
			<text x="55" y="10" text-anchor="end">.i/.ii/.ipp/.I</text>

			<path d="M 0,20 l 0,15 q 0,10 -10,10 l -50,0 q -10,0 -10,10 l 0,15"
				marker-end="url(#tcc_files:arrow)"/>

			<g transform="translate(-30 35)" text-anchor="middle">
				<text class="code">tcpplus</text>
			</g>
		</g>

		<g transform="translate(0 0)">
			<rect x="-65" y="-20" width="130" height="40"/>
			<g transform="translate(-55 -5)" text-anchor="start" style="font-weight: bold;">
				<text y="-5">Target-independent</text>
				<text y="5">TDF</text>
			</g>
			<text x="60" y="10" text-anchor="end">.j</text>

			<line y1="20" y2="185" marker-end="url(#tcc_files:arrow)"/>

			<g transform="translate(10 90)" text-anchor="start">
				<text class="code">tld</text>
			</g>

			<line x1="-65" x2="-120" y1="-10" y2="-10" class="dashed"/>
			<line x1="-115" x2="-120" y1="-10" y2="-10" marker-end="url(#tcc_files:arrow)"/>
			<line x1="-120" x2="-65"  y1="10"  y2="10"  marker-end="url(#tcc_files:arrow)"/>

			<g transform="translate(-90 -8)" text-anchor="middle">
				<text y="-10" class="code">arch</text>
				<text y="10"  class="code">arch</text>
			</g>

			<line x1="65" x2="120" y1="-10" y2="-10" class="dashed"/>
			<line x1="115" x2="120" y1="-10" y2="-10" marker-end="url(#tcc_files:arrow)"/>
			<line x1="120" x2="65"  y1="10"  y2="10"  marker-end="url(#tcc_files:arrow)"/>

			<g transform="translate(90 -8)" text-anchor="middle">
				<text y="-10" class="code">disp</text>
				<text y="10"  class="code">tnc</text>
			</g>

			<path d="M -50,20 l 0,15 q 0,10 -10,10 l -50,0 q -10,0 -10,10 l 0,15"
				class="dashed"/>
			<line x1="-120" x2="-120" y1="65" y2="70" marker-end="url(#tcc_files:arrow)"/>

			<g transform="translate(-90 35)" text-anchor="middle">
				<text class="code">tld</text>
			</g>
		</g>

		<g transform="translate(-185 0)">
			<rect x="-65" y="-20" width="130" height="40"/>
			<g transform="translate(-55 -5)" text-anchor="start" style="font-weight: bold;">
				<text y="-5">TDF archive</text>
			</g>
			<text x="60" y="10" text-anchor="end">.ta</text>
		</g>

		<g transform="translate(185 0)">
			<rect x="-65" y="-20" width="130" height="40"/>
			<g transform="translate(-55 -5)" text-anchor="start" style="font-weight: bold;">
				<text y="-5">Target-independent</text>
				<text y="5">TDF notation</text>
			</g>
			<text x="60" y="10" text-anchor="end">.p</text>
		</g>

		<g transform="translate(-120 90)">
			<rect x="-60" y="-20" width="130" height="40"/>
			<g transform="translate(-50 -5)" text-anchor="start" style="font-weight: bold;">
				<text y="-5">Target-independent</text>
				<text y="5">TDF</text>
			</g>
			<text x="65" y="10" text-anchor="end">.j</text>

			<path d="M 0,20 l 0,15 q 0,10 10,10 l 50,0 q 10,0 10,10 l 0,40"
				marker-end="url(#tcc_files:arrow)"/>

			<g transform="translate(30 35)" text-anchor="middle">
				<text class="code">tld</text>
			</g>
		</g>


		<g transform="translate(0 205)">
			<rect x="-65" y="-20" width="130" height="40"/>
			<g transform="translate(-55 -5)" text-anchor="start" style="font-weight: bold;">
				<text y="-5">Target-dependent</text>
				<text y="5">TDF</text>
			</g>
			<text x="60" y="10" text-anchor="end">.t</text>

			<line x1="65"  x2="120" y1="-10" y2="-10" class="dashed"/>
			<line x1="65"  x2="120" y1="10"  y2="10"  class="dashed"/>
			<line x1="115" x2="120" y1="-10" y2="-10" marker-end="url(#tcc_files:arrow)"/>
			<line x1="70"  x2="65"  y1="10"  y2="10"  marker-end="url(#tcc_files:arrow)"/>

			<g transform="translate(90 -8)" text-anchor="middle">
				<text y="-10" class="code">disp</text>
				<text y="10"  class="code">tnc</text>
			</g>

			<line y1="20" y2="60" marker-end="url(#tcc_files:arrow)"/>

			<g transform="translate(-10 40)" text-anchor="end">
				<text class="code">trans</text>
			</g>
		</g>

		<g transform="translate(185 205)">
			<rect x="-65" y="-20" width="130" height="40"/>
			<g transform="translate(-55 -5)" text-anchor="start" style="font-weight: bold;">
				<text y="-5">Target-dependent</text>
				<text y="5">TDF notation</text>
			</g>
			<text x="60" y="10" text-anchor="end">.p</text>
		</g>

		<g transform="translate(0 285)">
			<rect x="-65" y="-20" width="130" height="40"/>
			<g transform="translate(-55 -5)" text-anchor="start" style="font-weight: bold;">
				<text y="-5">Assembly source</text>
			</g>
			<text x="60" y="10" text-anchor="end">.s</text>

			<line y1="20" y2="60" marker-end="url(#tcc_files:arrow)"/>

			<g transform="translate(-10 40)" text-anchor="end">
				<text class="code">as</text>
			</g>
		</g>

		<g transform="translate(0 365)">
			<rect x="-65" y="-20" width="130" height="40"/>
			<g transform="translate(-55 -5)" text-anchor="start" style="font-weight: bold;">
				<text y="-5">Binary object</text>
			</g>
			<text x="60" y="10" text-anchor="end">.o</text>

			<line y1="20" y2="60" marker-end="url(#tcc_files:arrow)"/>

			<g transform="translate(-10 40)" text-anchor="end">
				<text class="code">ld</text>
			</g>
		</g>

		<g transform="translate(0 445)">
			<rect x="-65" y="-20" width="130" height="40"/>
			<g transform="translate(-55 -5)" text-anchor="start" style="font-weight: bold;">
				<text y="-5">Executable</text>
			</g>

			<text x="60" y="10" text-anchor="end">a.out</text>
		</g>
	</g>

</svg>

