<?xml version="1.0"?>

<svg
	xmlns="http://www.w3.org/2000/svg"
	xmlns:xlink="http://www.w3.org/1999/xlink"

	class="figure"
	width="850" height="950"
	transform="translate(.5 .5)">

	<defs>
		<marker id="startup:arrow"
				markerWidth="5" markerHeight="5"
				markerUnits="userSpaceOnUse"
				refX="5" refY="2.5"
				orient="auto">
			<polyline points="0,0 5,2.5 0,5" class="arrow"/>
		</marker>

		<g id="startup:tokdef" text-anchor="start">
			<text y="10" class="code">( make_tokdef</text>
			<text y="20" class="code"> &#xA0; posix.stdio.FILE</text>
			<text y="30" class="code"> &#xA0; -</text>
			<text y="40" class="code"> &#xA0; shape ... )</text>

			<text x="140" y="10">FILE token</text>
			<text x="140" y="20">definition</text>
		</g>
	</defs>

	<g transform="translate(90 35)">
		<polyline points="10,-30 -20,-30 -20,30 20,30 20,-20 10,-20 10,-30 20,-20"/>
		<g text-anchor="middle">
			<text>C89</text>
		</g>

		<text text-anchor="left" x="30" y="20">&#8220;FILE is a type&#8221;</text>

		<line y1="30"  y2="85"   class="dashed"/>
		<line transform="translate(0 85)" y1="-5" marker-end="url(#startup:arrow)"/>

		<text x="-5" y="60" text-anchor="end">Transcription</text>
	</g>

	<g transform="translate(90 150)">
		<rect x="-80" y="-30" width="160" height="60"/>
		<text x="75" y="-20" text-anchor="end">tspec/base/ansi/stdio.h.tspec</text>

		<line y1="-10" y2="-10" x1="-80" x2="80" class="dashed"/>

		<g transform="translate(-70 0)" text-anchor="start">
			<text y="0"  class="code">+TYPE FILE ;</text>
		</g>
	</g>

	<g transform="translate(340 35)">
		<polyline points="10,-30 -20,-30 -20,30 20,30 20,-20 10,-20 10,-30 20,-20"/>
		<g text-anchor="middle">
			<text>POSIX</text>
		</g>

		<text text-anchor="left" x="30" y="12">&#8220;FILE is from C89&#8221;</text>
		<text text-anchor="left" x="30" y="25">&#8220;_POSIX_SOURCE is defined&#8221;</text>

		<line y1="30" y2="85" class="dashed"/>
		<line transform="translate(0 85)" y1="-5" marker-end="url(#startup:arrow)"/>

		<text x="-5" y="60" text-anchor="end">Transcription</text>
	</g>

	<g transform="translate(340 150)">
		<rect x="-80" y="-30" width="160" height="60"/>
		<text x="75" y="-20" text-anchor="end">base/posix/stdio.h.tspec</text>

		<line y1="-10" y2="-10" x1="-80" x2="80" class="dashed"/>

		<g transform="translate(-70 0)" text-anchor="start">
			<text y="0"  class="code">+IMPLEMENT &quot;ansi&quot;, \</text>
			<text y="13" class="code">&#xA0; &quot;stdio.h.tspec&quot; ;</text>
		</g>

		<g transform="translate(-10 55)" text-anchor="end">
			<text y="-5">Transformation</text>
			<text y="5" class="code">tspec</text>
		</g>

		<line x1="-170" x2="-80" marker-end="url(#startup:arrow)"/>
		<text x="-125" y="-15" text-anchor="middle" class="code">+IMPLEMENT</text>

		<path d="M 0,30 l 0,40 q 0,10 10,10 l 360,0 q 10,0 10,10 l 0,20"
			marker-end="url(#startup:arrow)"/>
	</g>

	<g transform="translate(720 280)">
		<rect x="-120" y="-20" width="240" height="110"/>

		<text x="115" y="-10" text-anchor="end">$PREFIX_TSPEC/TenDRA/src/posix.api/stdio.c</text>

		<line x1="-120" x2="120" class="dashed"/>

		<g transform="translate(-110 0)" text-anchor="start">
<!-- TODO: conditional on inclusion being successful-->
			<text y="10" class="code">#define __BUILDING_TDF_POSIX_STDIO_H</text>

			<text y="30" class="code">#ifndef _WRONG_POSIX</text>
			<text y="43" class="code">#ifndef _WRONG_POSIX_STDIO_H</text>
			<text y="56" class="code">#include &lt;stdio.h&gt;</text>
			<text y="69" class="code">#endif</text>
			<text y="82" class="code">#endif</text>
		</g>

		<path d="M 0,90 l 0,265 q 0,10 -10,10 l -190,0 q -10,0 -10,10"/>
	</g>

	<g transform="translate(510 280)">
		<rect x="-65" y="-20" width="130" height="75"/>

		<g>
			<text x="60" y="-10" text-anchor="end">/usr/include/stdio.h</text>

			<line x1="-65" x2="65" class="dashed"/>

			<g transform="translate(-60 0)" text-anchor="start">
				<text y="10" class="code">typedef ... FILE;</text>
			</g>
		</g>

		<line y1="55" y2="400" marker-end="url(#startup:arrow)"/>

		<g transform="translate(10 345)" text-anchor="start">
			<text y="-5">Production</text>
			<text y="5" class="code">tcc -Ymakelib -D_${OSVER}</text>
		</g>
	</g>

	<g transform="translate(90 290)">
		<rect x="-80" y="-30" width="160" height="75"/>
		<g transform="translate(75 -20)" text-anchor="end">
			<text>osdep/machines/$os/$cpu/</text>
			<text y="10">startup/c89.h</text>
		</g>

		<line x1="-80" x2="80" class="dashed"/>

		<g transform="translate(-70 0)" text-anchor="start">
			<text y="10" class="code">/* empty */</text>
		</g>

		<path d="M 0,45 l 0,300 q 0,10 10,10 l 400,0 q 10,0 10,10"/>
	</g>

	<g transform="translate(340 290)">
		<rect x="-80" y="-30" width="160" height="75"/>
		<g transform="translate(75 -20)" text-anchor="end">
			<text>osdep/machines/$os/$cpu/</text>
			<text y="10">startup/posix.h</text>
		</g>

		<line x1="-80" x2="80" class="dashed"/>

		<g transform="translate(-70 0)" text-anchor="start">
			<text y="10" class="code">#include &quot;c89.h&quot;</text>
			<text y="33" class="code">#define _POSIX_SOURCE 1</text>
		</g>

		<line x1="-170" x2="-80" marker-end="url(#startup:arrow)"/>
		<text x="-125" y="-15" text-anchor="middle" class="code">#include</text>

		<path d="M 0,45 l 0,300 q 0,10 10,10"/>
	</g>

	<g transform="translate(610 465)">
		<rect x="-80" y="-30" width="160" height="140"/>
		<g transform="translate(75 -15)" text-anchor="end">
			<text y="-5">osdep/machines/$os/$cpu/</text>
			<text y="5">include/$api.h</text>
		</g>

		<line x1="-80" x2="80" class="dashed"/>

		<g transform="translate(-70 0)" text-anchor="start">
			<text y="10" class="code">#if __BUILDING_*</text>
			<text y="23" class="code">#if _${OSVER}</text>
			<text y="44" class="code">/* hacks go here */</text>
			<text y="63" class="code">#endif</text>
			<text y="76" class="code">#endif</text>
			<text y="99" class="code">#include_next &lt;stdio.h&gt;</text>
		</g>


		<path d="M 0,110 l 0,15 q 0,10 -10,10 l -80,0 q -10,0 -10,10" class="dashed"/>

		<path d="M 0,-30 l 0,-15 q 0,-10 -10,-10 l -80,0 q -10,0 -10,-10" class="dashed"/>
		<line y1="-35" y2="-30" marker-end="url(#startup:arrow)"/>

		<text text-anchor="middle" x="-40" y="-70" class="code">#include_next</text>
	</g>

	<g transform="translate(510 710)">
		<rect x="-70" y="-30" width="140" height="80"/>
		<g transform="translate(65 -15)" text-anchor="end">
			<text y="-5">osdep/obj/machines/$os/</text>
			<text y="5">$cpu/api/apis/$api.api/*.j</text>
		</g>

		<line x1="-70" x2="70" class="dashed"/>

		<use x="-65" xlink:href="#startup:tokdef"/>

		<line y1="50" y2="100" marker-end="url(#startup:arrow)"/>

		<g transform="translate(10 75)" text-anchor="start">
			<text y="-5">TDF linking</text>
			<text y="5" class="code">tld</text>
		</g>
	</g>

	<g transform="translate(510 840)">
		<rect x="-70" y="-30" width="140" height="70"/>

		<g transform="translate(0 -10)">
			<text x="65" y="-10" text-anchor="end">c89.tl</text>

			<line x1="-70" x2="70" class="dashed"/>

			<use x="-65" xlink:href="#startup:tokdef"/>
		</g>

		<line y1="40" y2="80" marker-end="url(#startup:arrow)"/>
	</g>

	<g transform="translate(510 935)">
		<circle r="15"/>
		<text text-anchor="middle">F</text>
	</g>

</svg>

